<svg width="39" height="39" viewBox="0 0 39 39" fill="none" xmlns="http://www.w3.org/2000/svg">
<path fill-rule="evenodd" clip-rule="evenodd" d="M5.44 31.0629L9.21143 27.1086L6.32 19.6114L4.25143 18.2629C4.10286 18.16 4.03429 17.9886 4.05714 17.8171L4.74286 12.5829C4.76571 12.4 4.90286 12.2514 5.07429 12.2171L13.2571 10.2171L14.3886 4.37714C14.4229 4.17143 14.5943 4.03429 14.7886 4.02286L17.2686 3.74857C17.5086 3.72571 17.7257 3.89714 17.7486 4.13714C17.7486 4.17143 17.7486 4.19429 17.7486 4.22857L17.6457 6.09143L19.0171 5.37143L19.3829 0.948571C19.3829 0.925714 19.3829 0.902857 19.3943 0.88C19.2686 0.88 19.1543 0.88 19.0286 0.88C17.8171 0.88 16.6286 0.994285 15.4857 1.22286C14.3086 1.45143 13.1771 1.80571 12.0914 2.25143C10.9829 2.70857 9.94286 3.26857 8.96 3.93143C7.96571 4.59429 7.04 5.36 6.20571 6.19429C5.36 7.04 4.60571 7.96571 3.94286 8.94857C3.29143 9.93143 2.72 10.9829 2.26286 12.08C1.81714 13.1657 1.47429 14.2971 1.23429 15.4743C1.00571 16.6171 0.891428 17.8057 0.891428 19.0171C0.891428 20.24 1.00571 21.4171 1.23429 22.5714C1.47429 23.7486 1.81714 24.88 2.26286 25.9657L2.27429 25.9886C2.73143 27.0857 3.29143 28.1257 3.94286 29.0971C4.37714 29.7829 4.89143 30.4343 5.44 31.0629ZM20.24 0.914285C21.0286 0.971428 21.8057 1.07429 22.5714 1.22286C23.7486 1.45143 24.8686 1.79429 25.9543 2.24L25.9771 2.25143C27.0857 2.70857 28.1257 3.26857 29.1086 3.93143C30.1029 4.59429 31.0286 5.36 31.8629 6.19429C32.0229 6.35429 32.1714 6.50286 32.32 6.67429L26.8229 6.41143C26.7886 6.41143 26.7429 6.41143 26.6971 6.41143C26.4571 6.45714 26.2971 6.67429 26.3314 6.91429L26.7657 9.42857L24.0914 12.1486C24.0229 12.2286 23.9657 12.3314 23.9657 12.4457L23.84 15.7829L21.1886 19.0629C21.1314 19.1314 21.0971 19.2114 21.0857 19.3029C21.0629 19.5429 21.2343 19.76 21.4743 19.7829L25.04 20.16C25.2114 20.1829 25.3829 20.1029 25.4743 19.9543L26.5029 18.2971L28.3543 19.8286C28.4229 19.8857 28.5257 19.9314 28.6286 19.9314L31.5429 19.9429L31.5543 20.0457L26.3543 21.6229C26.3429 21.6229 26.3314 21.6343 26.3086 21.6343L21.7257 23.1429C21.6114 23.1771 21.5086 23.2686 21.4629 23.3943L19.2457 28.6629V28.6743C19.1543 28.8914 19.2457 29.1543 19.4743 29.2571L26.5143 32.3543L26.4686 35.5657C26.2971 35.6457 26.1371 35.7143 25.9657 35.7829C24.8914 36.2286 23.7486 36.5714 22.5714 36.8114C21.4286 37.04 20.24 37.1543 19.0286 37.1543C17.8057 37.1543 16.6286 37.04 15.4743 36.8114C14.2971 36.5829 13.1657 36.2286 12.08 35.7829C10.9829 35.3257 9.93143 34.7657 8.94857 34.1029C7.95428 33.44 7.02857 32.6743 6.19428 31.84L6.03429 31.7029L10.0229 27.5086C10.1486 27.3714 10.1714 27.1886 10.1029 27.0286L7.06286 19.1543C7.02857 19.0629 6.97143 18.9943 6.89143 18.9371L4.93714 17.6686L5.55429 12.9943L13.7257 10.9943C13.8971 10.9486 14.0229 10.8114 14.0457 10.6514L15.1657 4.85714L16.8343 4.67429L16.7314 6.8C16.72 7.04 16.9029 7.24571 17.1429 7.25714C17.2229 7.25714 17.3029 7.24571 17.3714 7.21143L19.6229 6.03429C19.76 5.96571 19.84 5.82857 19.8629 5.68L20.24 1.01714C20.24 0.982857 20.24 0.948571 20.24 0.914285ZM27.3486 35.1429C27.9543 34.8343 28.5371 34.48 29.0971 34.1143C30.0914 33.4514 31.0171 32.6857 31.8514 31.8514C32.6971 31.0057 33.4514 30.0914 34.1143 29.0971C34.7657 28.1143 35.3371 27.0629 35.7943 25.9657L35.8057 25.9429C36.2514 24.8686 36.5943 23.7371 36.8229 22.5714C37.0514 21.4286 37.1657 20.24 37.1657 19.0171C37.1657 17.8057 37.0514 16.6171 36.8229 15.4743C36.5829 14.2971 36.24 13.1657 35.7943 12.08C35.3371 10.9714 34.7771 9.93143 34.1143 8.94857C33.7943 8.48 33.4629 8.02286 33.1086 7.58857L27.2914 7.30286L27.68 9.49714C27.7029 9.63429 27.6686 9.77143 27.5657 9.87429L24.8457 12.64L24.72 15.9543C24.72 16.0457 24.6857 16.1371 24.6286 16.2171L22.3771 18.9943L24.9029 19.2686L26.0457 17.44C26.0571 17.4171 26.0686 17.3943 26.0914 17.3829C26.24 17.2 26.5257 17.1657 26.7086 17.3257L28.8229 19.0743L31.9657 19.0857C32.1829 19.0857 32.3657 19.2457 32.4 19.4629L32.5029 20.3086C32.5371 20.5143 32.4 20.72 32.1943 20.7886L26.64 22.48L26.6171 22.4914L22.2171 23.9429L20.24 28.6514L27.1543 31.6914C27.3143 31.76 27.4171 31.92 27.4171 32.1029L27.3486 35.1429ZM29.5771 3.18857C30.6171 3.88571 31.5886 4.68571 32.4686 5.56571C33.3486 6.44571 34.1486 7.41714 34.8343 8.45714C35.52 9.48571 36.1143 10.5829 36.5943 11.7486C37.0629 12.88 37.4286 14.08 37.6686 15.3029C37.9086 16.5029 38.0343 17.7486 38.0343 19.0171C38.0343 20.2857 37.9086 21.5314 37.6686 22.7314C37.4286 23.9543 37.0629 25.1314 36.6057 26.2629L36.5943 26.2857C36.1143 27.44 35.52 28.5371 34.8343 29.5657C34.1371 30.6057 33.3486 31.5771 32.4686 32.4457C31.5886 33.3257 30.6171 34.1257 29.5771 34.8229C28.7886 35.3486 27.9657 35.8171 27.1086 36.2286C27.0971 36.24 27.0743 36.24 27.0629 36.2514C26.8114 36.3657 26.56 36.48 26.3086 36.5829C25.1657 37.0514 23.9771 37.4171 22.7543 37.6571C21.5543 37.8971 20.3086 38.0229 19.04 38.0229C17.7714 38.0229 16.5257 37.8971 15.3257 37.6571C14.0914 37.4171 12.9029 37.0514 11.7714 36.5829C10.6171 36.1029 9.52 35.5086 8.49143 34.8229C7.45143 34.1257 6.48 33.3257 5.6 32.4457C4.68571 31.5886 3.88571 30.6171 3.18857 29.5771C2.50286 28.56 1.92 27.4629 1.44 26.32L1.42857 26.2971C0.96 25.1657 0.594286 23.9657 0.354286 22.7314C0.114286 21.5314 0 20.2857 0 19.0171C0 17.7486 0.125714 16.5029 0.365714 15.3029C0.605714 14.0686 0.971428 12.88 1.44 11.7371C1.92 10.5829 2.51429 9.48571 3.2 8.45714C3.89714 7.41714 4.69714 6.44571 5.57714 5.56571C6.45714 4.68571 7.42857 3.88571 8.46857 3.18857C9.49714 2.50286 10.5943 1.90857 11.7486 1.42857C12.8914 0.96 14.08 0.594286 15.3143 0.354286C16.5029 0.125714 17.7486 0 19.0171 0C20.2857 0 21.5314 0.125714 22.7314 0.365714C23.9543 0.605714 25.1429 0.971429 26.2743 1.42857L26.2971 1.44C27.4514 1.90857 28.5486 2.50286 29.5771 3.18857ZM35.8057 25.9429C35.9086 25.7371 36.1486 25.6343 36.3657 25.7257L35.8057 25.9429Z" fill="white"/>
</svg>
