<svg width="34" height="34" viewBox="0 0 34 34" fill="none" xmlns="http://www.w3.org/2000/svg">
<path fill-rule="evenodd" clip-rule="evenodd" d="M6.68572 22.0343C6.34286 22.3771 6.08 22.7771 5.90857 23.2C5.72571 23.6343 5.63429 24.1143 5.63429 24.5829C5.63429 25.0514 5.72571 25.5314 5.90857 25.9657C6.08 26.3886 6.34286 26.7886 6.68572 27.1314L6.70857 27.1543C7.04 27.4857 7.42857 27.7371 7.85143 27.9086C8.29714 28.0914 8.76571 28.1829 9.23429 28.1829C9.71429 28.1829 10.1829 28.0914 10.6286 27.9086C11.0514 27.7371 11.44 27.4743 11.7829 27.1429L15.2 23.7257C14.7429 23.5429 14.2971 23.3143 13.8629 23.0629C13.2457 22.6857 12.6514 22.2286 12.1143 21.6914C11.2343 20.8114 10.5714 19.7943 10.1143 18.6971L10.08 18.6286L6.68572 22.0343ZM18.7543 18.7543H18.64C18.16 18.7543 17.6914 18.6629 17.2571 18.48C16.8343 18.3086 16.4343 18.0457 16.0914 17.7029C15.7486 17.36 15.4971 16.96 15.3143 16.5371C15.1314 16.1029 15.04 15.6229 15.04 15.1543V15.0514H15.1543C15.6229 15.0514 16.1029 15.1429 16.5371 15.3257C16.96 15.4971 17.36 15.76 17.7029 16.1029C18.0457 16.4457 18.3086 16.8457 18.48 17.2686C18.6629 17.7029 18.7543 18.1829 18.7543 18.6514V18.7543ZM18.6171 10.08C19.0743 10.2629 19.52 10.48 19.9543 10.7429C20.5714 11.12 21.1657 11.5771 21.7029 12.1143C22.5829 12.9943 23.2457 14.0114 23.7029 15.1086L23.7371 15.1886L27.1429 11.7829C27.4857 11.44 27.7486 11.04 27.92 10.6171C28.1029 10.1829 28.1943 9.70286 28.1943 9.23429C28.1943 8.76571 28.1029 8.29714 27.92 7.85143C27.7486 7.42857 27.4857 7.02857 27.1429 6.68572L27.12 6.66286C26.7771 6.33143 26.3886 6.08 25.9771 5.90857C25.5314 5.72571 25.0629 5.63429 24.5943 5.63429C24.1143 5.63429 23.6457 5.72571 23.2 5.90857C22.7771 6.08 22.3886 6.33143 22.0457 6.67429L18.6171 10.08ZM24.3886 18.6514C24.3886 18.1829 24.3543 17.7143 24.2857 17.2457C24.2286 16.8686 24.1486 16.5029 24.0457 16.1257L27.76 12.4114C28.1829 11.9886 28.5143 11.4857 28.7314 10.96C28.96 10.4114 29.0743 9.81714 29.0743 9.23429C29.0743 8.65143 28.96 8.05714 28.7314 7.50857C28.5143 6.97143 28.1943 6.48 27.76 6.04571L27.7371 6.02286C27.3143 5.61143 26.8343 5.29143 26.3086 5.07429C25.76 4.84571 25.1657 4.73143 24.5829 4.73143C23.9886 4.73143 23.4057 4.84571 22.8571 5.07429C22.32 5.29143 21.8286 5.61143 21.4057 6.03429L15.4629 11.9771C15.04 12.4 14.72 12.9029 14.5029 13.4286L14.4914 13.4629C14.2743 14 14.1714 14.5829 14.1714 15.1543C14.1714 15.7371 14.2857 16.3314 14.5143 16.88C14.7314 17.4057 15.0514 17.9086 15.4857 18.3314C15.92 18.7543 16.4114 19.0857 16.9371 19.3029C17.4857 19.52 18.0686 19.6457 18.64 19.6457C18.5829 19.8514 18.5029 20.0457 18.4114 20.24C18.24 20.5829 18.0114 20.9029 17.7257 21.1886L17.7029 21.2114L15.8971 23.0171C15.36 22.8343 14.8343 22.5829 14.3314 22.2857C13.7714 21.9429 13.2457 21.5314 12.7657 21.0514C11.9657 20.2514 11.3714 19.3371 10.96 18.3543C10.8686 18.1371 10.7886 17.92 10.72 17.6914V17.6686C10.5943 17.2571 10.5029 16.8457 10.4343 16.4229C10.3657 16 10.3429 15.5771 10.3429 15.1543C10.3429 14.0686 10.56 12.9829 10.9714 11.9657C11.3829 10.9829 11.9771 10.0686 12.7771 9.26857L18.7086 3.32571L18.7314 3.30286C19.52 2.51429 20.4343 1.92 21.4057 1.52C22.4229 1.09714 23.5086 0.891428 24.5943 0.891428C25.68 0.891428 26.7657 1.10857 27.7943 1.52C28.7771 1.93143 29.6914 2.52571 30.4914 3.32571C31.2914 4.12571 31.8857 5.04 32.2971 6.02286C32.72 7.04 32.9257 8.13714 32.9257 9.22286C32.9257 10.3086 32.72 11.4057 32.2971 12.4229C31.8971 13.4057 31.2914 14.32 30.4914 15.12L30.4686 15.1429L24.5486 21.0514C24.3429 21.2571 24.1371 21.44 23.92 21.6229C24 21.3943 24.0686 21.1657 24.1257 20.9257C24.1943 20.64 24.2629 20.3429 24.2971 20.0457L24.3086 20.0114V19.9886V19.9657V19.9314V19.8971C24.3657 19.4857 24.3886 19.0629 24.3886 18.6514ZM23.2 23.1886C22.8 23.8971 22.2971 24.5714 21.6914 25.1771L15.76 31.1086L15.7371 31.1314C14.8571 32 13.8514 32.6629 12.7657 33.1086C11.6343 33.5771 10.4343 33.8057 9.23429 33.8057C8.03429 33.8057 6.82286 33.5771 5.69143 33.1086C4.59429 32.6514 3.57714 31.9886 2.69714 31.1086C1.81714 30.2286 1.15429 29.2114 0.697143 28.1143C0.228572 26.9829 0 25.7714 0 24.5714C0 23.3714 0.228572 22.16 0.697143 21.0286C1.15429 19.9543 1.81714 18.9371 2.69714 18.0457L2.72 18.0229L8.64 12.1143C8.94857 11.8057 9.28 11.52 9.61143 11.2571C9.93143 11.0171 10.2629 10.8 10.5943 10.6171C10.9943 9.90857 11.4971 9.23429 12.1029 8.62857L18.0457 2.69714L18.0686 2.67429C18.9486 1.80571 19.9543 1.14286 21.04 0.697143C22.1714 0.228572 23.3714 0 24.5714 0C25.7714 0 26.9829 0.24 28.1143 0.697143C29.2 1.14286 30.2286 1.81714 31.1086 2.69714C31.9886 3.57714 32.6514 4.59429 33.1086 5.69143C33.5771 6.82286 33.8057 8.03429 33.8057 9.23429C33.8057 10.4457 33.5657 11.6457 33.1086 12.7771C32.6629 13.8629 31.9886 14.8914 31.1086 15.7714L31.0857 15.7943L25.1657 21.7029C24.8571 22.0114 24.5257 22.2971 24.1829 22.5486C23.8629 22.7771 23.5314 22.9943 23.2 23.1886ZM9.41714 15.1543C9.41714 15.6229 9.45143 16.0914 9.52 16.56C9.57714 16.9371 9.65714 17.3029 9.76 17.68L6.04571 21.3943C5.62286 21.8171 5.29143 22.32 5.07429 22.8457C4.84571 23.3943 4.73143 23.9886 4.73143 24.5714C4.73143 25.1543 4.84571 25.7486 5.07429 26.2971C5.29143 26.8343 5.62286 27.3257 6.04571 27.76L6.06857 27.7829C6.49143 28.1943 6.97143 28.5143 7.49714 28.7314C8.04572 28.96 8.64 29.0743 9.22286 29.0743C9.81714 29.0743 10.4 28.96 10.9486 28.7429C11.4857 28.5257 11.9771 28.2057 12.4 27.7829L18.3429 21.84C18.7657 21.4171 19.0857 20.9143 19.3029 20.3886L19.3143 20.3543C19.5314 19.8171 19.6343 19.2343 19.6343 18.6629C19.6343 18.08 19.52 17.4857 19.2914 16.9371C19.0743 16.4114 18.7543 15.9086 18.32 15.4857C17.8857 15.0514 17.3943 14.7314 16.8686 14.5143C16.32 14.2857 15.7371 14.1714 15.1657 14.1714C15.2229 13.9657 15.3029 13.7714 15.3943 13.5771C15.5543 13.2343 15.7943 12.9143 16.08 12.6286L16.1029 12.6057L17.9086 10.8C18.4457 10.9943 18.9714 11.2343 19.4743 11.5429C20.0343 11.8857 20.56 12.2971 21.04 12.7771C21.84 13.5771 22.4343 14.4914 22.8457 15.4743C22.9371 15.6914 23.0171 15.9086 23.0857 16.1371L23.0971 16.16C23.2229 16.56 23.3143 16.9829 23.3829 17.4057C23.4514 17.8286 23.4743 18.2514 23.4743 18.6743C23.4743 19.76 23.2571 20.8457 22.8457 21.8629C22.4343 22.8457 21.84 23.76 21.04 24.56L15.0971 30.5029L15.0743 30.5257C14.2857 31.3143 13.3714 31.9086 12.4 32.3086C11.3829 32.7314 10.2971 32.9371 9.2 32.9371C8.11429 32.9371 7.01714 32.72 6 32.3086C5.01714 31.9086 4.10286 31.3029 3.30286 30.5029C2.50286 29.7029 1.90857 28.7886 1.49714 27.8057C1.10857 26.7657 0.902857 25.6686 0.902857 24.5829C0.902857 23.4971 1.12 22.4 1.53143 21.3829C1.94286 20.4 2.53714 19.4857 3.33714 18.6857L3.36 18.6629L9.28 12.7543C9.48571 12.5486 9.69143 12.3657 9.90857 12.1829C9.82857 12.4114 9.76 12.64 9.70286 12.88C9.63429 13.1657 9.56571 13.4629 9.53143 13.76L9.52 13.7943V13.8171V13.84V13.8743V13.9086C9.44 14.32 9.41714 14.7429 9.41714 15.1543Z" fill="white"/>
</svg>
