<svg width="30" height="38" viewBox="0 0 30 38" fill="none" xmlns="http://www.w3.org/2000/svg">
<path fill-rule="evenodd" clip-rule="evenodd" d="M14.4571 37.0629C13.2914 35.7029 11.9771 34.2514 10.64 32.7543C7.78286 29.6 4.76572 26.24 2.68571 23.3029C1.80571 22.0343 1.12 20.6743 0.674286 19.2343C0.228572 17.8171 0 16.3314 0 14.7886C0 10.7086 1.65714 7.01714 4.33143 4.33143C7.00571 1.65714 10.6971 0 14.7886 0C18.8686 0 22.5714 1.65714 25.2457 4.33143C27.92 7.00571 29.5771 10.7086 29.5771 14.7886C29.5771 16.32 29.3486 17.8286 28.8914 19.2571C28.4343 20.6857 27.76 22.0457 26.88 23.3029C24.8 26.2514 21.7714 29.6 18.9257 32.7657C17.5771 34.2629 16.2743 35.7029 15.0971 37.0743C14.96 37.2457 14.6971 37.2571 14.5257 37.12C14.4914 37.0971 14.4686 37.0743 14.4571 37.0629ZM14.7657 8.24C12.96 8.24 11.3143 8.97143 10.1371 10.16C8.94857 11.3486 8.21714 12.9829 8.21714 14.7886C8.21714 16.5943 8.94857 18.24 10.1371 19.4171C11.3257 20.6057 12.96 21.3371 14.7657 21.3371C16.5714 21.3371 18.2171 20.6057 19.3943 19.4171C20.5829 18.2286 21.3143 16.5943 21.3143 14.7886C21.3143 12.9829 20.5829 11.3371 19.3943 10.16C18.2171 8.97143 16.5714 8.24 14.7657 8.24ZM9.56572 9.58857C8.22857 10.9257 7.40571 12.7657 7.40571 14.7886C7.40571 16.8229 8.22857 18.6629 9.55429 19.9886C10.8914 21.3143 12.7314 22.1486 14.7543 22.1486C16.7886 22.1486 18.6286 21.3257 19.9543 19.9886C21.2914 18.6514 22.1143 16.8114 22.1143 14.7886C22.1143 12.7543 21.2914 10.9143 19.9543 9.58857C18.6286 8.25143 16.7886 7.42857 14.7543 7.42857C12.7314 7.42857 10.8914 8.25143 9.56572 9.58857ZM11.2343 32.2171C12.48 33.6 13.6914 34.9486 14.7657 36.1829C15.84 34.9486 17.0514 33.6 18.2971 32.2171C21.1314 29.0857 24.1371 25.7486 26.1943 22.8343C27.0286 21.6571 27.6571 20.3657 28.0914 19.0171C28.5257 17.6571 28.7429 16.24 28.7429 14.8C28.7429 10.9371 27.1771 7.45143 24.6514 4.91429C22.1143 2.37714 18.6286 0.811429 14.7657 0.811429C10.9029 0.811429 7.41714 2.37714 4.88 4.90286C2.35429 7.42857 0.788572 10.9257 0.788572 14.7886C0.788572 16.2514 1.00571 17.6457 1.42857 18.9943C1.85143 20.3429 2.49143 21.6343 3.33714 22.8457C5.39429 25.7486 8.4 29.0743 11.2343 32.2171Z" fill="white"/>
</svg>
