<svg width="28" height="36" viewBox="0 0 28 36" fill="none" xmlns="http://www.w3.org/2000/svg">
<path d="M20.232 34.7353C20.12 33.9209 19.6032 33.2489 18.9072 32.9609V7.28895C18.9072 6.00735 17.9408 4.96735 16.7488 4.96735H3.4848C2.2928 4.96735 1.3264 6.00735 1.3264 7.28895V32.9609C0.632 33.2473 0.113599 33.9193 0.00159912 34.7353H0V35.8921H20.2336V34.7353H20.232ZM16.5408 17.5593C16.5408 18.0473 16.1728 18.4425 15.72 18.4425H4.5136C4.0608 18.4425 3.6928 18.0473 3.6928 17.5593V8.28575C3.6928 7.79775 4.0608 7.40255 4.5136 7.40255H15.72C16.1728 7.40255 16.5408 7.79775 16.5408 8.28575V17.5593Z" fill="white"/>
<path d="M23.6563 32.1113C21.7603 32.1113 20.4323 30.5689 20.4323 28.6713V26.3753H20.4291V17.5129C20.4291 16.5049 19.6083 15.6841 18.6019 15.6841C18.5699 15.6841 18.5379 15.6857 18.5059 15.6873V14.0745C18.5379 14.0729 18.5699 14.0729 18.6019 14.0729C20.4979 14.0729 22.0419 15.6169 22.0419 17.5129V19.8089H22.0451V28.6713C22.0451 29.6793 22.6499 30.5001 23.6579 30.5001C24.6659 30.5001 25.2707 29.6793 25.2707 28.6713V11.2729H26.8819V28.6713C26.8803 30.5673 25.5523 32.1113 23.6563 32.1113Z" fill="white"/>
<path d="M27.1483 4.56092C27.1371 4.24412 27.1291 3.98332 27.1291 3.98332C27.1291 3.98332 27.1291 3.98332 27.1291 3.98172C27.1291 3.98172 27.1291 3.98012 27.1275 3.97852C27.1275 3.97692 27.1259 3.97532 27.1259 3.97532C27.1243 3.97532 26.9723 3.76572 26.7851 3.50812L24.4475 0.27772C24.2619 0.0201197 23.8763 -0.0758799 23.5915 0.0649201L23.2939 0.21052C23.0091 0.35132 22.9147 0.68412 23.0859 0.95292L24.7019 3.49692C24.7691 3.60092 24.8283 3.73852 24.8763 3.88412C24.3627 3.96892 23.2427 4.17052 23.1387 5.13212L22.9723 6.67292C22.8843 7.48412 23.5851 8.20412 24.5675 8.30972L24.8683 8.34172L24.8091 10.1273C24.7979 10.4441 25.0491 10.7049 25.3675 10.7049H26.7755C27.0923 10.7049 27.3435 10.4457 27.3339 10.1273L27.1483 4.56092ZM24.6779 7.29372C24.2587 7.24892 23.9691 6.98812 23.9915 6.78492L24.1579 5.24412C24.1627 5.19772 24.2411 5.03932 24.9803 4.90812L24.9003 7.31932L24.6779 7.29372Z" fill="white"/>
</svg>
